<svg xmlns="http://www.w3.org/2000/svg" xmlns:xlink="http://www.w3.org/1999/xlink" width="1080" zoomAndPan="magnify" viewBox="0 0 810 809.999993" height="1080" preserveAspectRatio="xMidYMid meet" version="1.0"><defs><clipPath id="745b722360"><path d="M 0 79.480469 L 810 79.480469 L 810 594 L 0 594 Z M 0 79.480469 " clip-rule="nonzero"/></clipPath><clipPath id="6b4f0fa094"><path d="M 124 556 L 686 556 L 686 730.480469 L 124 730.480469 Z M 124 556 " clip-rule="nonzero"/></clipPath></defs><g clip-path="url(#745b722360)"><path fill="#febf00" d="M 575.132812 235.6875 C 618.328125 279.085938 645.03125 338.921875 645.03125 405 C 645.03125 427.238281 641.992188 448.761719 636.335938 469.199219 C 628.835938 465.902344 621.273438 462.785156 613.667969 459.824219 C 618.257812 442.316406 620.707031 423.949219 620.707031 405 C 620.707031 352.773438 602.144531 304.882812 571.261719 267.566406 C 573.5625 257.394531 574.878906 246.683594 575.132812 235.6875 Z M 196.332031 459.824219 C 188.726562 462.785156 181.167969 465.902344 173.667969 469.199219 C 168.007812 448.761719 164.96875 427.238281 164.96875 405 C 164.96875 338.949219 191.652344 279.136719 234.820312 235.734375 L 234.820312 270.164062 C 234.820312 270.90625 234.851562 271.640625 234.875 272.378906 C 206.3125 308.964844 189.292969 354.992188 189.292969 405 C 189.292969 423.949219 191.746094 442.316406 196.332031 459.824219 Z M 809.808594 593.988281 C 782.78125 561.164062 749.582031 533.503906 713.132812 510.207031 C 724.402344 477.199219 730.527344 441.820312 730.527344 405 C 730.527344 225.21875 584.78125 79.472656 405 79.472656 C 225.214844 79.472656 79.472656 225.21875 79.472656 405 C 79.472656 441.820312 85.59375 477.207031 96.863281 510.207031 C 60.414062 533.503906 27.214844 561.164062 0.191406 593.988281 C 0.191406 593.988281 113.597656 542.625 268.132812 505.175781 C 270.929688 504.492188 273.730469 503.839844 276.535156 503.203125 L 274.335938 538.957031 C 273.535156 552.046875 283.933594 563.109375 297.050781 563.109375 L 297.546875 563.109375 C 299.363281 563.109375 301.121094 562.890625 302.808594 562.488281 C 292.292969 560.007812 284.660156 550.238281 285.355469 538.957031 L 295.441406 374.761719 C 297.011719 349.171875 288.867188 323.515625 271.320312 304.8125 C 262.820312 295.75 257.613281 283.570312 257.613281 270.164062 L 257.613281 138.984375 L 272.101562 138.984375 L 272.101562 251.65625 C 272.101562 255.65625 275.34375 258.898438 279.34375 258.898438 C 283.34375 258.898438 286.585938 255.65625 286.585938 251.65625 L 286.585938 138.984375 L 301.074219 138.984375 L 301.074219 251.65625 C 301.074219 255.65625 304.3125 258.898438 308.316406 258.898438 C 312.316406 258.898438 315.558594 255.65625 315.558594 251.65625 L 315.558594 138.984375 L 330.042969 138.984375 L 330.042969 251.65625 C 330.042969 255.65625 333.289062 258.898438 337.285156 258.898438 C 341.289062 258.898438 344.53125 255.65625 344.53125 251.65625 L 344.53125 138.984375 L 359.015625 138.984375 L 359.015625 270.164062 C 359.015625 283.570312 353.8125 295.75 345.3125 304.8125 C 327.765625 323.515625 319.617188 349.171875 321.191406 374.761719 L 328.511719 493.898438 C 376.175781 487.570312 424.433594 487.179688 472.175781 492.730469 L 479.519531 373.210938 C 481 349.019531 473.152344 325.03125 457.023438 306.9375 C 441.988281 290.078125 432.207031 262.707031 432.207031 231.800781 C 432.207031 180.539062 459.109375 138.984375 492.300781 138.984375 C 525.488281 138.984375 552.386719 180.539062 552.386719 231.800781 C 552.386719 262.707031 542.605469 290.078125 527.574219 306.9375 C 511.445312 325.03125 503.59375 349.019531 505.078125 373.210938 L 515.257812 538.957031 C 515.953125 550.238281 508.320312 560 497.804688 562.488281 C 499.492188 562.890625 501.253906 563.109375 503.066406 563.109375 L 503.558594 563.109375 C 516.675781 563.109375 527.082031 552.046875 526.273438 538.957031 L 523.953125 501.140625 C 529.9375 502.390625 535.914062 503.730469 541.867188 505.175781 C 696.402344 542.625 809.808594 593.988281 809.808594 593.988281 " fill-opacity="1" fill-rule="nonzero"/></g><g clip-path="url(#6b4f0fa094)"><path fill="#febf00" d="M 640.644531 556.175781 C 590.855469 633.632812 503.917969 684.9375 405 684.9375 C 306.082031 684.9375 219.152344 633.632812 169.355469 556.175781 C 153.570312 561.085938 138.648438 565.964844 124.738281 570.6875 C 181.429688 666.371094 285.722656 730.527344 405 730.527344 C 524.277344 730.527344 628.570312 666.371094 685.261719 570.6875 C 671.351562 565.964844 656.433594 561.085938 640.644531 556.175781 " fill-opacity="1" fill-rule="nonzero"/></g></svg>