<svg xmlns="http://www.w3.org/2000/svg" xmlns:xlink="http://www.w3.org/1999/xlink" width="1080" zoomAndPan="magnify" viewBox="0 0 810 809.999993" height="1080" preserveAspectRatio="xMidYMid meet" version="1.0"><defs><g/><clipPath id="bee0fc3c08"><path d="M 0 168.90625 L 810 168.90625 L 810 641.09375 L 0 641.09375 Z M 0 168.90625 " clip-rule="nonzero"/></clipPath><clipPath id="61bf0cb7b1"><path d="M 38.25 168.90625 L 771.75 168.90625 C 792.875 168.90625 810 186.03125 810 207.15625 L 810 602.84375 C 810 623.96875 792.875 641.09375 771.75 641.09375 L 38.25 641.09375 C 17.125 641.09375 0 623.96875 0 602.84375 L 0 207.15625 C 0 186.03125 17.125 168.90625 38.25 168.90625 Z M 38.25 168.90625 " clip-rule="nonzero"/></clipPath><clipPath id="10df28ad49"><path d="M 40.875 256.53125 L 351.527344 256.53125 L 351.527344 567 L 40.875 567 Z M 40.875 256.53125 " clip-rule="nonzero"/></clipPath><clipPath id="b662ed5d13"><path d="M 28.851562 267.414062 L 147.515625 267.414062 L 147.515625 386 L 28.851562 386 Z M 28.851562 267.414062 " clip-rule="nonzero"/></clipPath><clipPath id="3cd12e4168"><path d="M 28.851562 335.339844 L 91.515625 335.339844 L 91.515625 398 L 28.851562 398 Z M 28.851562 335.339844 " clip-rule="nonzero"/></clipPath><clipPath id="180740660b"><path d="M 44.195312 350.679688 L 76.191406 350.679688 L 76.191406 382.679688 L 44.195312 382.679688 Z M 44.195312 350.679688 " clip-rule="nonzero"/></clipPath></defs><g clip-path="url(#bee0fc3c08)"><g clip-path="url(#61bf0cb7b1)"><path fill="#d9d9d9" d="M 0 168.90625 L 809.730469 168.90625 L 809.730469 641.09375 L 0 641.09375 Z M 0 168.90625 " fill-opacity="1" fill-rule="nonzero"/></g></g><g clip-path="url(#10df28ad49)"><path fill="#febf00" d="M 195.9375 256.53125 C 238.761719 256.53125 277.523438 273.886719 305.585938 301.945312 C 333.648438 330.011719 351.007812 368.777344 351.007812 411.59375 C 351.007812 454.414062 333.648438 493.183594 305.585938 521.242188 C 277.523438 549.308594 238.761719 566.664062 195.9375 566.664062 C 153.121094 566.664062 114.355469 549.308594 86.289062 521.242188 C 58.230469 493.183594 40.875 454.414062 40.875 411.59375 C 40.875 368.777344 58.230469 330.011719 86.289062 301.945312 C 114.355469 273.886719 153.121094 256.53125 195.9375 256.53125 Z M 293.402344 314.132812 C 268.464844 289.1875 234 273.757812 195.9375 273.757812 C 157.878906 273.757812 123.417969 289.1875 98.476562 314.132812 C 73.53125 339.074219 58.101562 373.53125 58.101562 411.59375 C 58.101562 449.660156 73.53125 484.121094 98.476562 509.0625 C 123.417969 534.007812 157.878906 549.433594 195.9375 549.433594 C 234 549.433594 268.464844 534.007812 293.402344 509.0625 C 318.347656 484.121094 333.777344 449.660156 333.777344 411.59375 C 333.777344 373.53125 318.347656 339.074219 293.402344 314.132812 " fill-opacity="1" fill-rule="nonzero"/></g><g clip-path="url(#b662ed5d13)"><path fill="#d9d9d9" d="M 147.328125 326.652344 C 147.328125 328.59375 147.230469 330.527344 147.042969 332.460938 C 146.851562 334.390625 146.566406 336.304688 146.1875 338.210938 C 145.808594 340.113281 145.339844 341.992188 144.777344 343.847656 C 144.210938 345.703125 143.558594 347.53125 142.816406 349.320312 C 142.074219 351.113281 141.246094 352.867188 140.332031 354.578125 C 139.417969 356.289062 138.421875 357.949219 137.34375 359.5625 C 136.265625 361.175781 135.109375 362.734375 133.878906 364.230469 C 132.648438 365.730469 131.347656 367.167969 129.976562 368.539062 C 128.605469 369.910156 127.167969 371.214844 125.667969 372.445312 C 124.167969 373.675781 122.613281 374.828125 121 375.90625 C 119.386719 376.984375 117.722656 377.980469 116.011719 378.894531 C 114.300781 379.808594 112.550781 380.636719 110.757812 381.378906 C 108.964844 382.125 107.140625 382.777344 105.285156 383.339844 C 103.429688 383.902344 101.546875 384.375 99.644531 384.75 C 97.742188 385.128906 95.828125 385.414062 93.894531 385.605469 C 91.964844 385.792969 90.03125 385.890625 88.089844 385.890625 C 86.148438 385.890625 84.214844 385.792969 82.28125 385.605469 C 80.351562 385.414062 78.4375 385.128906 76.53125 384.75 C 74.628906 384.375 72.75 383.902344 70.894531 383.339844 C 69.039062 382.777344 67.210938 382.125 65.421875 381.378906 C 63.628906 380.636719 61.875 379.808594 60.164062 378.894531 C 58.453125 377.980469 56.792969 376.984375 55.179688 375.90625 C 53.566406 374.828125 52.007812 373.675781 50.507812 372.445312 C 49.011719 371.214844 47.574219 369.910156 46.203125 368.539062 C 44.832031 367.167969 43.527344 365.730469 42.296875 364.230469 C 41.066406 362.734375 39.914062 361.175781 38.835938 359.5625 C 37.757812 357.949219 36.761719 356.289062 35.847656 354.578125 C 34.933594 352.867188 34.105469 351.113281 33.363281 349.320312 C 32.617188 347.53125 31.964844 345.703125 31.402344 343.847656 C 30.839844 341.992188 30.367188 340.113281 29.992188 338.210938 C 29.613281 336.304688 29.328125 334.390625 29.136719 332.460938 C 28.949219 330.527344 28.851562 328.59375 28.851562 326.652344 C 28.851562 324.710938 28.949219 322.777344 29.136719 320.847656 C 29.328125 318.914062 29.613281 317 29.992188 315.097656 C 30.367188 313.191406 30.839844 311.3125 31.402344 309.457031 C 31.964844 307.601562 32.617188 305.777344 33.363281 303.984375 C 34.105469 302.191406 34.933594 300.441406 35.847656 298.730469 C 36.761719 297.015625 37.757812 295.355469 38.835938 293.742188 C 39.914062 292.128906 41.066406 290.574219 42.296875 289.074219 C 43.527344 287.574219 44.832031 286.136719 46.203125 284.765625 C 47.574219 283.394531 49.011719 282.09375 50.507812 280.863281 C 52.007812 279.632812 53.566406 278.476562 55.179688 277.398438 C 56.792969 276.320312 58.453125 275.324219 60.164062 274.410156 C 61.875 273.496094 63.628906 272.667969 65.421875 271.925781 C 67.210938 271.183594 69.039062 270.53125 70.894531 269.964844 C 72.75 269.402344 74.628906 268.933594 76.53125 268.554688 C 78.4375 268.175781 80.351562 267.890625 82.28125 267.699219 C 84.214844 267.511719 86.148438 267.414062 88.089844 267.414062 C 90.03125 267.414062 91.964844 267.511719 93.894531 267.699219 C 95.828125 267.890625 97.742188 268.175781 99.644531 268.554688 C 101.546875 268.933594 103.429688 269.402344 105.285156 269.964844 C 107.140625 270.53125 108.964844 271.183594 110.757812 271.925781 C 112.550781 272.667969 114.300781 273.496094 116.011719 274.410156 C 117.722656 275.324219 119.386719 276.320312 121 277.398438 C 122.613281 278.476562 124.167969 279.632812 125.667969 280.863281 C 127.167969 282.09375 128.605469 283.394531 129.976562 284.765625 C 131.347656 286.136719 132.648438 287.574219 133.878906 289.074219 C 135.109375 290.574219 136.265625 292.128906 137.34375 293.742188 C 138.421875 295.355469 139.417969 297.015625 140.332031 298.730469 C 141.246094 300.441406 142.074219 302.191406 142.816406 303.984375 C 143.558594 305.777344 144.210938 307.601562 144.777344 309.457031 C 145.339844 311.3125 145.808594 313.191406 146.1875 315.097656 C 146.566406 317 146.851562 318.914062 147.042969 320.847656 C 147.230469 322.777344 147.328125 324.710938 147.328125 326.652344 Z M 147.328125 326.652344 " fill-opacity="1" fill-rule="nonzero"/></g><g clip-path="url(#3cd12e4168)"><path fill="#febf00" d="M 91.222656 366.527344 C 91.222656 367.546875 91.171875 368.566406 91.074219 369.582031 C 90.972656 370.597656 90.824219 371.609375 90.625 372.609375 C 90.425781 373.613281 90.175781 374.601562 89.882812 375.578125 C 89.585938 376.554688 89.242188 377.515625 88.851562 378.460938 C 88.460938 379.402344 88.023438 380.324219 87.542969 381.226562 C 87.058594 382.128906 86.535156 383.003906 85.96875 383.851562 C 85.402344 384.699219 84.792969 385.519531 84.144531 386.308594 C 83.496094 387.097656 82.8125 387.855469 82.089844 388.578125 C 81.367188 389.300781 80.613281 389.984375 79.820312 390.632812 C 79.03125 391.28125 78.214844 391.886719 77.363281 392.457031 C 76.515625 393.023438 75.640625 393.546875 74.738281 394.03125 C 73.839844 394.511719 72.914062 394.945312 71.972656 395.335938 C 71.027344 395.730469 70.066406 396.074219 69.089844 396.367188 C 68.113281 396.664062 67.125 396.914062 66.121094 397.113281 C 65.121094 397.3125 64.109375 397.460938 63.09375 397.5625 C 62.078125 397.660156 61.058594 397.710938 60.039062 397.710938 C 59.015625 397.710938 57.996094 397.660156 56.980469 397.5625 C 55.964844 397.460938 54.957031 397.3125 53.953125 397.113281 C 52.953125 396.914062 51.960938 396.664062 50.984375 396.367188 C 50.007812 396.074219 49.046875 395.730469 48.105469 395.335938 C 47.160156 394.945312 46.238281 394.511719 45.335938 394.03125 C 44.4375 393.546875 43.5625 393.023438 42.710938 392.457031 C 41.863281 391.886719 41.042969 391.28125 40.253906 390.632812 C 39.464844 389.984375 38.707031 389.300781 37.988281 388.578125 C 37.265625 387.855469 36.578125 387.097656 35.929688 386.308594 C 35.28125 385.519531 34.675781 384.699219 34.109375 383.851562 C 33.539062 383.003906 33.015625 382.128906 32.535156 381.226562 C 32.054688 380.324219 31.617188 379.402344 31.226562 378.460938 C 30.835938 377.515625 30.492188 376.554688 30.195312 375.578125 C 29.898438 374.601562 29.652344 373.613281 29.453125 372.609375 C 29.253906 371.609375 29.101562 370.597656 29.003906 369.582031 C 28.902344 368.566406 28.851562 367.546875 28.851562 366.527344 C 28.851562 365.503906 28.902344 364.484375 29.003906 363.46875 C 29.101562 362.453125 29.253906 361.445312 29.453125 360.441406 C 29.652344 359.441406 29.898438 358.449219 30.195312 357.472656 C 30.492188 356.496094 30.835938 355.535156 31.226562 354.589844 C 31.617188 353.648438 32.054688 352.726562 32.535156 351.824219 C 33.015625 350.925781 33.539062 350.050781 34.109375 349.199219 C 34.675781 348.351562 35.28125 347.53125 35.929688 346.742188 C 36.578125 345.953125 37.265625 345.195312 37.988281 344.472656 C 38.707031 343.753906 39.464844 343.066406 40.253906 342.417969 C 41.042969 341.769531 41.863281 341.164062 42.710938 340.597656 C 43.5625 340.027344 44.4375 339.503906 45.335938 339.023438 C 46.238281 338.542969 47.160156 338.105469 48.105469 337.714844 C 49.046875 337.324219 50.007812 336.980469 50.984375 336.683594 C 51.960938 336.386719 52.953125 336.140625 53.953125 335.941406 C 54.957031 335.738281 55.964844 335.589844 56.980469 335.492188 C 57.996094 335.390625 59.015625 335.339844 60.039062 335.339844 C 61.058594 335.339844 62.078125 335.390625 63.09375 335.492188 C 64.109375 335.589844 65.121094 335.738281 66.121094 335.941406 C 67.125 336.140625 68.113281 336.386719 69.089844 336.683594 C 70.066406 336.980469 71.027344 337.324219 71.972656 337.714844 C 72.914062 338.105469 73.839844 338.542969 74.738281 339.023438 C 75.640625 339.503906 76.515625 340.027344 77.363281 340.597656 C 78.214844 341.164062 79.03125 341.769531 79.820312 342.417969 C 80.613281 343.066406 81.367188 343.753906 82.089844 344.472656 C 82.8125 345.195312 83.496094 345.953125 84.144531 346.742188 C 84.792969 347.53125 85.402344 348.351562 85.96875 349.199219 C 86.535156 350.050781 87.058594 350.925781 87.542969 351.824219 C 88.023438 352.726562 88.460938 353.648438 88.851562 354.589844 C 89.242188 355.535156 89.585938 356.496094 89.882812 357.472656 C 90.175781 358.449219 90.425781 359.441406 90.625 360.441406 C 90.824219 361.445312 90.972656 362.453125 91.074219 363.46875 C 91.171875 364.484375 91.222656 365.503906 91.222656 366.527344 Z M 91.222656 366.527344 " fill-opacity="1" fill-rule="nonzero"/></g><g fill="#000000" fill-opacity="1"><g transform="translate(404.999983, 390.783059)"><g><path d="M 14.578125 0 L 6.09375 0 L 6.09375 -46.859375 L 18.203125 -46.859375 L 30.0625 -12.40625 L 30.734375 -12.40625 L 42.53125 -46.859375 L 54.359375 -46.859375 L 54.359375 0 L 45.578125 0 L 45.578125 -30.96875 L 44.78125 -31.09375 L 33.9375 0 L 26.21875 0 L 15.390625 -31.09375 L 14.578125 -30.96875 Z M 14.578125 0 "/></g></g><g transform="translate(465.481341, 390.783059)"><g><path d="M 13.78125 0.671875 C 11.519531 0.671875 9.554688 0.253906 7.890625 -0.578125 C 6.222656 -1.410156 4.9375 -2.632812 4.03125 -4.25 C 3.132812 -5.863281 2.6875 -7.800781 2.6875 -10.0625 C 2.6875 -12.15625 3.132812 -13.910156 4.03125 -15.328125 C 4.9375 -16.753906 6.328125 -17.921875 8.203125 -18.828125 C 10.085938 -19.734375 12.546875 -20.429688 15.578125 -20.921875 C 17.691406 -21.265625 19.296875 -21.640625 20.390625 -22.046875 C 21.492188 -22.453125 22.238281 -22.910156 22.625 -23.421875 C 23.007812 -23.941406 23.203125 -24.597656 23.203125 -25.390625 C 23.203125 -26.515625 22.804688 -27.375 22.015625 -27.96875 C 21.222656 -28.570312 19.910156 -28.875 18.078125 -28.875 C 16.109375 -28.875 14.238281 -28.4375 12.46875 -27.5625 C 10.695312 -26.6875 9.160156 -25.535156 7.859375 -24.109375 L 7.21875 -24.109375 L 3.5 -29.71875 C 5.289062 -31.695312 7.476562 -33.242188 10.0625 -34.359375 C 12.644531 -35.472656 15.46875 -36.03125 18.53125 -36.03125 C 23.207031 -36.03125 26.59375 -35.035156 28.6875 -33.046875 C 30.78125 -31.054688 31.828125 -28.234375 31.828125 -24.578125 L 31.828125 -9.234375 C 31.828125 -7.648438 32.519531 -6.859375 33.90625 -6.859375 C 34.445312 -6.859375 34.972656 -6.953125 35.484375 -7.140625 L 35.921875 -7.015625 L 36.5625 -0.828125 C 36.070312 -0.515625 35.390625 -0.253906 34.515625 -0.046875 C 33.640625 0.148438 32.679688 0.25 31.640625 0.25 C 29.523438 0.25 27.875 -0.148438 26.6875 -0.953125 C 25.5 -1.765625 24.648438 -3.039062 24.140625 -4.78125 L 23.46875 -4.84375 C 21.726562 -1.164062 18.5 0.671875 13.78125 0.671875 Z M 16.609375 -5.96875 C 18.648438 -5.96875 20.285156 -6.65625 21.515625 -8.03125 C 22.742188 -9.40625 23.359375 -11.320312 23.359375 -13.78125 L 23.359375 -17.375 L 22.75 -17.5 C 22.21875 -17.070312 21.519531 -16.710938 20.65625 -16.421875 C 19.789062 -16.140625 18.546875 -15.859375 16.921875 -15.578125 C 14.992188 -15.253906 13.609375 -14.703125 12.765625 -13.921875 C 11.921875 -13.140625 11.5 -12.035156 11.5 -10.609375 C 11.5 -9.085938 11.945312 -7.929688 12.84375 -7.140625 C 13.75 -6.359375 15.003906 -5.96875 16.609375 -5.96875 Z M 16.609375 -5.96875 "/></g></g><g transform="translate(502.757344, 390.783059)"><g><path d="M 5.09375 0 L 5.09375 -35.359375 L 13.71875 -35.359375 L 13.71875 -30.09375 L 14.390625 -29.96875 C 15.242188 -31.9375 16.363281 -33.378906 17.75 -34.296875 C 19.144531 -35.210938 20.835938 -35.671875 22.828125 -35.671875 C 24.828125 -35.671875 26.351562 -35.328125 27.40625 -34.640625 L 25.890625 -26.984375 L 25.21875 -26.859375 C 24.644531 -27.097656 24.085938 -27.269531 23.546875 -27.375 C 23.015625 -27.476562 22.367188 -27.53125 21.609375 -27.53125 C 19.128906 -27.53125 17.234375 -26.660156 15.921875 -24.921875 C 14.617188 -23.179688 13.96875 -20.382812 13.96875 -16.53125 L 13.96875 0 Z M 5.09375 0 "/></g></g><g transform="translate(530.481973, 390.783059)"><g><path d="M 5.09375 0 L 5.09375 -49.546875 L 13.96875 -49.546875 L 13.96875 -22.046875 L 14.84375 -22.046875 L 25.0625 -35.359375 L 34.0625 -35.359375 L 34.0625 -34.609375 L 22.046875 -19.109375 L 35.421875 -0.796875 L 35.421875 0 L 26.0625 0 L 14.84375 -14.90625 L 13.96875 -14.90625 L 13.96875 0 Z M 5.09375 0 "/></g></g><g transform="translate(565.963087, 390.783059)"><g><path d="M 34.9375 -15.671875 L 12.21875 -15.671875 C 12.46875 -12.597656 13.335938 -10.359375 14.828125 -8.953125 C 16.328125 -7.554688 18.375 -6.859375 20.96875 -6.859375 C 22.988281 -6.859375 24.628906 -7.238281 25.890625 -8 C 27.148438 -8.757812 28.164062 -9.90625 28.9375 -11.4375 L 29.609375 -11.4375 L 35.515625 -7.65625 C 34.359375 -5.175781 32.613281 -3.164062 30.28125 -1.625 C 27.957031 -0.09375 24.851562 0.671875 20.96875 0.671875 C 17.3125 0.671875 14.148438 -0.0195312 11.484375 -1.40625 C 8.828125 -2.800781 6.773438 -4.867188 5.328125 -7.609375 C 3.890625 -10.359375 3.171875 -13.707031 3.171875 -17.65625 C 3.171875 -21.675781 3.925781 -25.0625 5.4375 -27.8125 C 6.957031 -30.570312 9.007812 -32.628906 11.59375 -33.984375 C 14.1875 -35.347656 17.097656 -36.03125 20.328125 -36.03125 C 25.328125 -36.03125 29.15625 -34.703125 31.8125 -32.046875 C 34.46875 -29.398438 35.796875 -25.515625 35.796875 -20.390625 C 35.796875 -18.523438 35.734375 -17.082031 35.609375 -16.0625 Z M 27.3125 -21.40625 C 27.21875 -24.101562 26.585938 -26.066406 25.421875 -27.296875 C 24.265625 -28.523438 22.566406 -29.140625 20.328125 -29.140625 C 15.835938 -29.140625 13.195312 -26.5625 12.40625 -21.40625 Z M 27.3125 -21.40625 "/></g></g><g transform="translate(604.392948, 390.783059)"><g><path d="M 24.390625 -8.421875 L 26.703125 -1.859375 C 25.734375 -1.066406 24.519531 -0.445312 23.0625 0 C 21.613281 0.445312 19.972656 0.671875 18.140625 0.671875 C 14.316406 0.671875 11.410156 -0.367188 9.421875 -2.453125 C 7.429688 -4.535156 6.4375 -7.5625 6.4375 -11.53125 L 6.4375 -28.328125 L 1.0625 -28.328125 L 1.0625 -35.390625 L 6.4375 -35.390625 L 6.4375 -42.28125 L 15.328125 -43.71875 L 15.328125 -35.390625 L 25.359375 -35.390625 L 25.359375 -28.328125 L 15.328125 -28.328125 L 15.328125 -12.171875 C 15.328125 -10.421875 15.6875 -9.144531 16.40625 -8.34375 C 17.132812 -7.539062 18.191406 -7.140625 19.578125 -7.140625 C 21.160156 -7.140625 22.539062 -7.566406 23.71875 -8.421875 Z M 24.390625 -8.421875 "/></g></g></g><g fill="#000000" fill-opacity="1"><g transform="translate(631.866095, 390.783059)"><g/></g></g><g fill="#000000" fill-opacity="1"><g transform="translate(404.999983, 482.302687)"><g><path d="M 15.359375 -20.578125 L 15.359375 -7.75 L 37.71875 -7.75 L 37.71875 0 L 6.09375 0 L 6.09375 -46.859375 L 37.21875 -46.859375 L 37.21875 -39.109375 L 15.359375 -39.109375 L 15.359375 -28.140625 L 34.453125 -28.140625 L 34.453125 -20.578125 Z M 15.359375 -20.578125 "/></g></g><g transform="translate(445.288837, 482.302687)"><g><path d="M 9.96875 0 L 0.609375 0 L 10.703125 -18.328125 L 1.15625 -35.359375 L 10.640625 -35.359375 L 16.765625 -23.71875 L 17.5 -23.71875 L 23.65625 -35.359375 L 32.859375 -35.359375 L 23.59375 -18.328125 L 33.390625 0 L 23.9375 0 L 17.28125 -12.921875 L 16.53125 -12.921875 Z M 9.96875 0 "/></g></g><g transform="translate(479.295578, 482.302687)"><g><path d="M 5.09375 14.328125 L 5.09375 -35.359375 L 13.96875 -35.359375 L 13.96875 -30.734375 L 14.640625 -30.609375 C 15.691406 -32.398438 17.09375 -33.75 18.84375 -34.65625 C 20.59375 -35.570312 22.644531 -36.03125 25 -36.03125 C 27.84375 -36.03125 30.328125 -35.351562 32.453125 -34 C 34.578125 -32.65625 36.234375 -30.609375 37.421875 -27.859375 C 38.609375 -25.117188 39.203125 -21.71875 39.203125 -17.65625 C 39.203125 -13.625 38.578125 -10.238281 37.328125 -7.5 C 36.078125 -4.757812 34.335938 -2.710938 32.109375 -1.359375 C 29.890625 -0.00390625 27.328125 0.671875 24.421875 0.671875 C 22.222656 0.671875 20.320312 0.304688 18.71875 -0.421875 C 17.113281 -1.160156 15.753906 -2.3125 14.640625 -3.875 L 13.96875 -3.75 L 13.96875 14.328125 Z M 21.953125 -6.859375 C 24.597656 -6.859375 26.601562 -7.722656 27.96875 -9.453125 C 29.34375 -11.179688 30.03125 -13.914062 30.03125 -17.65625 C 30.03125 -21.394531 29.34375 -24.132812 27.96875 -25.875 C 26.601562 -27.625 24.597656 -28.5 21.953125 -28.5 C 19.472656 -28.5 17.503906 -27.597656 16.046875 -25.796875 C 14.597656 -24.003906 13.875 -21.289062 13.875 -17.65625 C 13.875 -14.050781 14.597656 -11.347656 16.046875 -9.546875 C 17.503906 -7.753906 19.472656 -6.859375 21.953125 -6.859375 Z M 21.953125 -6.859375 "/></g></g><g transform="translate(521.635733, 482.302687)"><g><path d="M 34.9375 -15.671875 L 12.21875 -15.671875 C 12.46875 -12.597656 13.335938 -10.359375 14.828125 -8.953125 C 16.328125 -7.554688 18.375 -6.859375 20.96875 -6.859375 C 22.988281 -6.859375 24.628906 -7.238281 25.890625 -8 C 27.148438 -8.757812 28.164062 -9.90625 28.9375 -11.4375 L 29.609375 -11.4375 L 35.515625 -7.65625 C 34.359375 -5.175781 32.613281 -3.164062 30.28125 -1.625 C 27.957031 -0.09375 24.851562 0.671875 20.96875 0.671875 C 17.3125 0.671875 14.148438 -0.0195312 11.484375 -1.40625 C 8.828125 -2.800781 6.773438 -4.867188 5.328125 -7.609375 C 3.890625 -10.359375 3.171875 -13.707031 3.171875 -17.65625 C 3.171875 -21.675781 3.925781 -25.0625 5.4375 -27.8125 C 6.957031 -30.570312 9.007812 -32.628906 11.59375 -33.984375 C 14.1875 -35.347656 17.097656 -36.03125 20.328125 -36.03125 C 25.328125 -36.03125 29.15625 -34.703125 31.8125 -32.046875 C 34.46875 -29.398438 35.796875 -25.515625 35.796875 -20.390625 C 35.796875 -18.523438 35.734375 -17.082031 35.609375 -16.0625 Z M 27.3125 -21.40625 C 27.21875 -24.101562 26.585938 -26.066406 25.421875 -27.296875 C 24.265625 -28.523438 22.566406 -29.140625 20.328125 -29.140625 C 15.835938 -29.140625 13.195312 -26.5625 12.40625 -21.40625 Z M 27.3125 -21.40625 "/></g></g><g transform="translate(560.065594, 482.302687)"><g><path d="M 5.09375 0 L 5.09375 -35.359375 L 13.71875 -35.359375 L 13.71875 -30.09375 L 14.390625 -29.96875 C 15.242188 -31.9375 16.363281 -33.378906 17.75 -34.296875 C 19.144531 -35.210938 20.835938 -35.671875 22.828125 -35.671875 C 24.828125 -35.671875 26.351562 -35.328125 27.40625 -34.640625 L 25.890625 -26.984375 L 25.21875 -26.859375 C 24.644531 -27.097656 24.085938 -27.269531 23.546875 -27.375 C 23.015625 -27.476562 22.367188 -27.53125 21.609375 -27.53125 C 19.128906 -27.53125 17.234375 -26.660156 15.921875 -24.921875 C 14.617188 -23.179688 13.96875 -20.382812 13.96875 -16.53125 L 13.96875 0 Z M 5.09375 0 "/></g></g><g transform="translate(587.790223, 482.302687)"><g><path d="M 9.515625 -39.578125 C 7.910156 -39.578125 6.609375 -40.0625 5.609375 -41.03125 C 4.609375 -42.007812 4.109375 -43.269531 4.109375 -44.8125 C 4.109375 -46.320312 4.609375 -47.5625 5.609375 -48.53125 C 6.609375 -49.507812 7.910156 -50 9.515625 -50 C 10.585938 -50 11.539062 -49.773438 12.375 -49.328125 C 13.207031 -48.878906 13.851562 -48.265625 14.3125 -47.484375 C 14.769531 -46.703125 15 -45.8125 15 -44.8125 C 15 -43.800781 14.769531 -42.898438 14.3125 -42.109375 C 13.851562 -41.316406 13.207031 -40.695312 12.375 -40.25 C 11.539062 -39.800781 10.585938 -39.578125 9.515625 -39.578125 Z M 5.09375 0 L 5.09375 -35.359375 L 13.96875 -35.359375 L 13.96875 0 Z M 5.09375 0 "/></g></g><g transform="translate(606.82887, 482.302687)"><g><path d="M 34.9375 -15.671875 L 12.21875 -15.671875 C 12.46875 -12.597656 13.335938 -10.359375 14.828125 -8.953125 C 16.328125 -7.554688 18.375 -6.859375 20.96875 -6.859375 C 22.988281 -6.859375 24.628906 -7.238281 25.890625 -8 C 27.148438 -8.757812 28.164062 -9.90625 28.9375 -11.4375 L 29.609375 -11.4375 L 35.515625 -7.65625 C 34.359375 -5.175781 32.613281 -3.164062 30.28125 -1.625 C 27.957031 -0.09375 24.851562 0.671875 20.96875 0.671875 C 17.3125 0.671875 14.148438 -0.0195312 11.484375 -1.40625 C 8.828125 -2.800781 6.773438 -4.867188 5.328125 -7.609375 C 3.890625 -10.359375 3.171875 -13.707031 3.171875 -17.65625 C 3.171875 -21.675781 3.925781 -25.0625 5.4375 -27.8125 C 6.957031 -30.570312 9.007812 -32.628906 11.59375 -33.984375 C 14.1875 -35.347656 17.097656 -36.03125 20.328125 -36.03125 C 25.328125 -36.03125 29.15625 -34.703125 31.8125 -32.046875 C 34.46875 -29.398438 35.796875 -25.515625 35.796875 -20.390625 C 35.796875 -18.523438 35.734375 -17.082031 35.609375 -16.0625 Z M 27.3125 -21.40625 C 27.21875 -24.101562 26.585938 -26.066406 25.421875 -27.296875 C 24.265625 -28.523438 22.566406 -29.140625 20.328125 -29.140625 C 15.835938 -29.140625 13.195312 -26.5625 12.40625 -21.40625 Z M 27.3125 -21.40625 "/></g></g><g transform="translate(645.258731, 482.302687)"><g><path d="M 5.09375 0 L 5.09375 -35.359375 L 13.625 -35.359375 L 13.625 -30.15625 L 14.296875 -30 C 16.492188 -34.019531 20.0625 -36.03125 25 -36.03125 C 29.082031 -36.03125 32.078125 -34.914062 33.984375 -32.6875 C 35.898438 -30.46875 36.859375 -27.234375 36.859375 -22.984375 L 36.859375 0 L 27.984375 0 L 27.984375 -21.890625 C 27.984375 -24.242188 27.507812 -25.9375 26.5625 -26.96875 C 25.625 -28.007812 24.117188 -28.53125 22.046875 -28.53125 C 19.503906 -28.53125 17.519531 -27.707031 16.09375 -26.0625 C 14.675781 -24.414062 13.96875 -21.828125 13.96875 -18.296875 L 13.96875 0 Z M 5.09375 0 "/></g></g><g transform="translate(686.66939, 482.302687)"><g><path d="M 20.609375 0.671875 C 17.191406 0.671875 14.164062 -0.0351562 11.53125 -1.453125 C 8.90625 -2.878906 6.851562 -4.96875 5.375 -7.71875 C 3.90625 -10.476562 3.171875 -13.789062 3.171875 -17.65625 C 3.171875 -21.550781 3.90625 -24.875 5.375 -27.625 C 6.851562 -30.382812 8.894531 -32.472656 11.5 -33.890625 C 14.113281 -35.316406 17.097656 -36.03125 20.453125 -36.03125 C 27.910156 -36.03125 32.6875 -33.328125 34.78125 -27.921875 L 28.6875 -23.5625 L 28.015625 -23.5625 C 27.285156 -25.226562 26.335938 -26.46875 25.171875 -27.28125 C 24.003906 -28.09375 22.429688 -28.5 20.453125 -28.5 C 17.890625 -28.5 15.890625 -27.609375 14.453125 -25.828125 C 13.023438 -24.054688 12.3125 -21.332031 12.3125 -17.65625 C 12.3125 -14.03125 13.035156 -11.320312 14.484375 -9.53125 C 15.941406 -7.75 17.984375 -6.859375 20.609375 -6.859375 C 22.535156 -6.859375 24.164062 -7.375 25.5 -8.40625 C 26.832031 -9.445312 27.785156 -10.941406 28.359375 -12.890625 L 29.03125 -12.953125 L 35.359375 -9.484375 C 34.453125 -6.492188 32.785156 -4.050781 30.359375 -2.15625 C 27.941406 -0.269531 24.691406 0.671875 20.609375 0.671875 Z M 20.609375 0.671875 "/></g></g><g transform="translate(723.112052, 482.302687)"><g><path d="M 34.9375 -15.671875 L 12.21875 -15.671875 C 12.46875 -12.597656 13.335938 -10.359375 14.828125 -8.953125 C 16.328125 -7.554688 18.375 -6.859375 20.96875 -6.859375 C 22.988281 -6.859375 24.628906 -7.238281 25.890625 -8 C 27.148438 -8.757812 28.164062 -9.90625 28.9375 -11.4375 L 29.609375 -11.4375 L 35.515625 -7.65625 C 34.359375 -5.175781 32.613281 -3.164062 30.28125 -1.625 C 27.957031 -0.09375 24.851562 0.671875 20.96875 0.671875 C 17.3125 0.671875 14.148438 -0.0195312 11.484375 -1.40625 C 8.828125 -2.800781 6.773438 -4.867188 5.328125 -7.609375 C 3.890625 -10.359375 3.171875 -13.707031 3.171875 -17.65625 C 3.171875 -21.675781 3.925781 -25.0625 5.4375 -27.8125 C 6.957031 -30.570312 9.007812 -32.628906 11.59375 -33.984375 C 14.1875 -35.347656 17.097656 -36.03125 20.328125 -36.03125 C 25.328125 -36.03125 29.15625 -34.703125 31.8125 -32.046875 C 34.46875 -29.398438 35.796875 -25.515625 35.796875 -20.390625 C 35.796875 -18.523438 35.734375 -17.082031 35.609375 -16.0625 Z M 27.3125 -21.40625 C 27.21875 -24.101562 26.585938 -26.066406 25.421875 -27.296875 C 24.265625 -28.523438 22.566406 -29.140625 20.328125 -29.140625 C 15.835938 -29.140625 13.195312 -26.5625 12.40625 -21.40625 Z M 27.3125 -21.40625 "/></g></g></g><g fill="#000000" fill-opacity="1"><g transform="translate(127.357804, 439.922883)"><g><path d="M 22.34375 0.765625 C 16.988281 0.765625 12.738281 -0.359375 9.59375 -2.609375 C 6.445312 -4.859375 4.398438 -8 3.453125 -12.03125 L 11.484375 -15.59375 L 12.328125 -15.4375 C 13.109375 -13.070312 14.273438 -11.289062 15.828125 -10.09375 C 17.378906 -8.894531 19.515625 -8.296875 22.234375 -8.296875 C 25.015625 -8.296875 27.160156 -9.085938 28.671875 -10.671875 C 30.191406 -12.265625 30.953125 -14.640625 30.953125 -17.796875 C 30.953125 -20.921875 30.203125 -23.289062 28.703125 -24.90625 C 27.203125 -26.519531 25.15625 -27.328125 22.5625 -27.328125 C 20.582031 -27.328125 18.914062 -26.898438 17.5625 -26.046875 C 16.21875 -25.191406 15.097656 -23.921875 14.203125 -22.234375 L 5.421875 -22.859375 L 6.53125 -53.625 L 38.4375 -53.625 L 38.4375 -44.71875 L 15.4375 -44.71875 L 14.921875 -31.03125 L 15.703125 -30.890625 C 16.953125 -32.523438 18.441406 -33.765625 20.171875 -34.609375 C 21.910156 -35.453125 24.003906 -35.875 26.453125 -35.875 C 29.503906 -35.875 32.171875 -35.191406 34.453125 -33.828125 C 36.742188 -32.472656 38.515625 -30.457031 39.765625 -27.78125 C 41.015625 -25.101562 41.640625 -21.832031 41.640625 -17.96875 C 41.640625 -14.03125 40.882812 -10.660156 39.375 -7.859375 C 37.875 -5.066406 35.679688 -2.929688 32.796875 -1.453125 C 29.910156 0.0234375 26.425781 0.765625 22.34375 0.765625 Z M 22.34375 0.765625 "/></g></g><g transform="translate(172.551126, 439.922883)"><g><path d="M 26.1875 0.765625 C 21.8125 0.765625 18.003906 -0.203125 14.765625 -2.140625 C 11.523438 -4.085938 9.003906 -7.113281 7.203125 -11.21875 C 5.410156 -15.332031 4.515625 -20.53125 4.515625 -26.8125 C 4.515625 -33.09375 5.410156 -38.285156 7.203125 -42.390625 C 9.003906 -46.503906 11.523438 -49.535156 14.765625 -51.484375 C 18.003906 -53.429688 21.8125 -54.40625 26.1875 -54.40625 C 30.59375 -54.40625 34.414062 -53.429688 37.65625 -51.484375 C 40.894531 -49.535156 43.410156 -46.503906 45.203125 -42.390625 C 47.003906 -38.285156 47.90625 -33.09375 47.90625 -26.8125 C 47.90625 -20.53125 47.003906 -15.332031 45.203125 -11.21875 C 43.410156 -7.113281 40.894531 -4.085938 37.65625 -2.140625 C 34.414062 -0.203125 30.59375 0.765625 26.1875 0.765625 Z M 26.1875 -8.21875 C 28.582031 -8.21875 30.585938 -8.796875 32.203125 -9.953125 C 33.816406 -11.117188 35.054688 -13.070312 35.921875 -15.8125 C 36.796875 -18.550781 37.234375 -22.21875 37.234375 -26.8125 C 37.234375 -31.40625 36.796875 -35.070312 35.921875 -37.8125 C 35.054688 -40.550781 33.816406 -42.5 32.203125 -43.65625 C 30.585938 -44.820312 28.582031 -45.40625 26.1875 -45.40625 C 23.789062 -45.40625 21.785156 -44.820312 20.171875 -43.65625 C 18.554688 -42.5 17.316406 -40.550781 16.453125 -37.8125 C 15.585938 -35.070312 15.15625 -31.40625 15.15625 -26.8125 C 15.15625 -22.21875 15.585938 -18.550781 16.453125 -15.8125 C 17.316406 -13.070312 18.554688 -11.117188 20.171875 -9.953125 C 21.785156 -8.796875 23.789062 -8.21875 26.1875 -8.21875 Z M 26.1875 -8.21875 "/></g></g><g transform="translate(224.970978, 439.922883)"><g><path d="M 24.171875 -31.03125 L 36.3125 -31.03125 L 36.3125 -22.59375 L 24.171875 -22.59375 L 24.171875 -10.265625 L 15.375 -10.265625 L 15.375 -22.59375 L 3.1875 -22.59375 L 3.1875 -31.03125 L 15.375 -31.03125 L 15.375 -43.359375 L 24.171875 -43.359375 Z M 24.171875 -31.03125 "/></g></g></g><g clip-path="url(#180740660b)"><path fill="#ffffff" d="M 76.191406 366.679688 C 76.191406 367.203125 76.167969 367.726562 76.113281 368.25 C 76.0625 368.769531 75.988281 369.289062 75.882812 369.800781 C 75.78125 370.316406 75.65625 370.824219 75.503906 371.324219 C 75.351562 371.828125 75.175781 372.320312 74.972656 372.804688 C 74.773438 373.289062 74.550781 373.761719 74.300781 374.222656 C 74.054688 374.683594 73.785156 375.132812 73.496094 375.570312 C 73.203125 376.003906 72.894531 376.425781 72.558594 376.832031 C 72.226562 377.234375 71.875 377.625 71.503906 377.992188 C 71.136719 378.363281 70.746094 378.714844 70.34375 379.046875 C 69.9375 379.378906 69.515625 379.691406 69.082031 379.984375 C 68.644531 380.273438 68.195312 380.542969 67.734375 380.789062 C 67.273438 381.039062 66.800781 381.261719 66.316406 381.460938 C 65.832031 381.664062 65.339844 381.839844 64.835938 381.992188 C 64.335938 382.144531 63.828125 382.269531 63.3125 382.371094 C 62.800781 382.472656 62.28125 382.550781 61.761719 382.601562 C 61.238281 382.652344 60.714844 382.679688 60.191406 382.679688 C 59.667969 382.679688 59.144531 382.652344 58.625 382.601562 C 58.101562 382.550781 57.585938 382.472656 57.070312 382.371094 C 56.558594 382.269531 56.050781 382.144531 55.546875 381.992188 C 55.046875 381.839844 54.554688 381.664062 54.070312 381.460938 C 53.585938 381.261719 53.113281 381.039062 52.652344 380.789062 C 52.1875 380.542969 51.738281 380.273438 51.304688 379.984375 C 50.867188 379.691406 50.449219 379.378906 50.042969 379.046875 C 49.636719 378.714844 49.25 378.363281 48.878906 377.992188 C 48.507812 377.625 48.15625 377.234375 47.824219 376.832031 C 47.492188 376.425781 47.179688 376.003906 46.890625 375.570312 C 46.597656 375.132812 46.328125 374.683594 46.082031 374.222656 C 45.835938 373.761719 45.613281 373.289062 45.410156 372.804688 C 45.210938 372.320312 45.035156 371.828125 44.882812 371.324219 C 44.730469 370.824219 44.601562 370.316406 44.5 369.800781 C 44.398438 369.289062 44.320312 368.769531 44.269531 368.25 C 44.21875 367.726562 44.195312 367.203125 44.195312 366.679688 C 44.195312 366.15625 44.21875 365.632812 44.269531 365.113281 C 44.320312 364.589844 44.398438 364.074219 44.5 363.558594 C 44.601562 363.046875 44.730469 362.539062 44.882812 362.035156 C 45.035156 361.535156 45.210938 361.042969 45.410156 360.558594 C 45.613281 360.074219 45.835938 359.601562 46.082031 359.140625 C 46.328125 358.675781 46.597656 358.226562 46.890625 357.792969 C 47.179688 357.355469 47.492188 356.9375 47.824219 356.53125 C 48.15625 356.125 48.507812 355.738281 48.878906 355.367188 C 49.25 354.996094 49.636719 354.644531 50.042969 354.3125 C 50.449219 353.980469 50.867188 353.667969 51.304688 353.378906 C 51.738281 353.085938 52.1875 352.816406 52.652344 352.570312 C 53.113281 352.324219 53.585938 352.101562 54.070312 351.898438 C 54.554688 351.699219 55.046875 351.523438 55.546875 351.371094 C 56.050781 351.21875 56.558594 351.089844 57.070312 350.988281 C 57.585938 350.886719 58.101562 350.808594 58.625 350.757812 C 59.144531 350.707031 59.667969 350.679688 60.191406 350.679688 C 60.714844 350.679688 61.238281 350.707031 61.761719 350.757812 C 62.28125 350.808594 62.800781 350.886719 63.3125 350.988281 C 63.828125 351.089844 64.335938 351.21875 64.835938 351.371094 C 65.339844 351.523438 65.832031 351.699219 66.316406 351.898438 C 66.800781 352.101562 67.273438 352.324219 67.734375 352.570312 C 68.195312 352.816406 68.644531 353.085938 69.082031 353.378906 C 69.515625 353.667969 69.9375 353.980469 70.34375 354.3125 C 70.746094 354.644531 71.136719 354.996094 71.503906 355.367188 C 71.875 355.738281 72.226562 356.125 72.558594 356.53125 C 72.894531 356.9375 73.203125 357.355469 73.496094 357.792969 C 73.785156 358.226562 74.054688 358.675781 74.300781 359.140625 C 74.550781 359.601562 74.773438 360.074219 74.972656 360.558594 C 75.175781 361.042969 75.351562 361.535156 75.503906 362.035156 C 75.65625 362.539062 75.78125 363.046875 75.882812 363.558594 C 75.988281 364.074219 76.0625 364.589844 76.113281 365.113281 C 76.167969 365.632812 76.191406 366.15625 76.191406 366.679688 Z M 76.191406 366.679688 " fill-opacity="1" fill-rule="nonzero"/></g></svg>