<svg xmlns="http://www.w3.org/2000/svg" xmlns:xlink="http://www.w3.org/1999/xlink" width="1080" zoomAndPan="magnify" viewBox="0 0 810 809.999993" height="1080" preserveAspectRatio="xMidYMid meet" version="1.0"><path fill="#febf00" d="M 800.128906 426.332031 L 783.410156 448.09375 C 776.058594 457.460938 774.183594 470 778.21875 481.242188 L 787.445312 507.042969 C 792.777344 522.03125 787.445312 538.75 774.183594 547.6875 L 751.699219 563.109375 C 741.898438 569.882812 736.132812 581.125 736.421875 592.941406 L 737.289062 620.183594 C 737.71875 636.039062 727.488281 650.304688 712.210938 654.773438 L 685.976562 662.414062 C 674.589844 665.726562 665.65625 674.664062 662.195312 686.195312 L 654.558594 712.425781 C 650.089844 727.703125 635.820312 738.082031 619.96875 737.503906 L 592.726562 736.640625 C 580.765625 736.351562 569.523438 741.972656 562.890625 751.917969 L 547.46875 774.398438 C 538.535156 787.515625 521.816406 792.992188 506.828125 787.660156 L 481.027344 778.4375 C 469.785156 774.398438 457.390625 776.417969 447.878906 783.625 L 426.257812 800.34375 C 413.71875 810 396.136719 810 383.597656 800.34375 L 361.976562 783.625 C 352.609375 776.417969 340.070312 774.398438 328.828125 778.4375 L 303.03125 787.660156 C 288.039062 792.992188 271.320312 787.660156 262.386719 774.398438 L 246.964844 751.917969 C 240.191406 742.117188 228.949219 736.351562 217.128906 736.640625 L 189.890625 737.503906 C 174.035156 737.9375 159.765625 727.703125 155.296875 712.425781 L 147.660156 686.195312 C 144.34375 674.808594 135.410156 665.871094 123.878906 662.414062 L 97.648438 654.773438 C 82.371094 650.304688 71.992188 636.039062 72.570312 620.183594 L 73.433594 592.941406 C 73.722656 580.980469 68.101562 569.738281 58.15625 563.109375 L 35.671875 547.6875 C 22.554688 538.75 17.078125 522.03125 22.410156 507.042969 L 31.636719 481.242188 C 35.671875 470 33.652344 457.605469 26.449219 448.09375 L 9.730469 426.332031 C 0.0703125 413.792969 0.0703125 396.207031 9.730469 383.667969 L 26.449219 362.050781 C 33.652344 352.679688 35.671875 340.140625 31.636719 328.902344 L 22.410156 303.246094 C 17.078125 288.257812 22.554688 271.539062 35.671875 262.601562 L 58.15625 247.324219 C 68.101562 240.550781 73.867188 229.308594 73.433594 217.34375 L 72.570312 190.105469 C 72.136719 174.25 82.371094 159.980469 97.648438 155.515625 L 123.878906 147.875 C 135.265625 144.558594 144.199219 135.625 147.660156 124.09375 L 155.296875 97.863281 C 159.765625 82.585938 174.035156 72.207031 189.890625 72.785156 L 217.128906 73.648438 C 229.089844 73.9375 240.332031 68.316406 246.964844 58.371094 L 262.386719 35.886719 C 271.320312 22.773438 288.039062 17.296875 303.03125 22.628906 L 328.683594 31.851562 C 339.925781 35.886719 352.464844 33.871094 361.832031 26.519531 L 383.453125 9.800781 C 395.992188 0.144531 413.574219 0 426.113281 9.800781 L 448.023438 26.519531 C 457.390625 33.726562 469.929688 35.742188 481.171875 31.707031 L 506.96875 22.484375 C 521.960938 17.152344 538.679688 22.628906 547.613281 35.742188 L 562.75 58.226562 C 569.523438 68.171875 580.765625 73.9375 592.726562 73.503906 L 619.96875 72.640625 C 635.820312 72.207031 650.089844 82.441406 654.558594 97.71875 L 662.195312 123.949219 C 665.511719 135.335938 674.449219 144.273438 685.976562 147.730469 L 712.210938 155.371094 C 727.488281 159.839844 737.863281 174.105469 737.289062 189.960938 L 736.421875 217.199219 C 736.132812 229.164062 741.753906 240.40625 751.699219 247.035156 L 774.183594 262.457031 C 787.300781 271.394531 792.777344 288.113281 787.445312 303.101562 L 778.21875 328.757812 C 774.183594 340 776.203125 352.539062 783.550781 361.90625 L 800.269531 383.523438 C 809.929688 396.207031 809.929688 413.792969 800.128906 426.332031 Z M 800.128906 426.332031 " fill-opacity="1" fill-rule="nonzero"/><path fill="#000000" d="M 125.175781 301.226562 C 129.5 289.984375 134.398438 278.886719 139.875 268.367188 C 141.03125 266.347656 143.480469 265.484375 145.785156 266.492188 C 147.804688 267.644531 148.667969 270.097656 147.660156 272.402344 C 142.328125 282.636719 137.425781 293.445312 133.390625 304.398438 C 132.667969 306.128906 131.085938 307.28125 129.210938 307.28125 C 128.777344 307.28125 128.203125 307.136719 127.625 306.992188 C 125.464844 305.839844 124.453125 303.390625 125.175781 301.226562 Z M 108.3125 371.273438 C 109.753906 359.457031 111.769531 347.347656 114.652344 335.820312 C 115.230469 333.511719 117.535156 332.070312 119.84375 332.648438 C 122.148438 333.222656 123.589844 335.53125 123.011719 337.835938 C 120.273438 349.078125 118.257812 360.753906 116.816406 372.28125 C 116.527344 374.15625 114.652344 375.886719 112.492188 375.886719 C 112.347656 375.886719 112.203125 375.886719 112.058594 375.886719 C 109.753906 375.742188 107.878906 373.722656 108.3125 371.273438 Z M 205.886719 189.382812 C 204.300781 187.65625 204.445312 184.917969 206.175781 183.332031 C 215.253906 175.402344 224.625 167.765625 234.570312 160.992188 C 236.441406 159.550781 239.179688 159.980469 240.621094 162.144531 C 242.0625 164.019531 241.628906 166.757812 239.46875 168.199219 C 229.957031 174.828125 220.589844 182.179688 211.941406 189.816406 C 211.21875 190.394531 210.066406 190.824219 209.058594 190.824219 C 208.050781 190.824219 206.75 190.394531 205.886719 189.382812 Z M 113.210938 446.941406 C 113.070312 446.941406 112.925781 446.941406 112.78125 446.941406 C 110.617188 446.941406 108.890625 445.355469 108.457031 443.195312 C 107.015625 431.375 106.292969 419.269531 106.292969 407.304688 C 106.292969 405 108.167969 402.980469 110.617188 402.980469 C 113.070312 402.980469 114.941406 404.855469 114.941406 407.304688 C 114.941406 418.980469 115.664062 430.800781 117.105469 442.328125 C 117.25 444.636719 115.519531 446.652344 113.210938 446.941406 Z M 158.613281 237.378906 C 165.386719 227.578125 172.882812 217.921875 180.808594 208.839844 C 182.394531 207.113281 185.132812 206.96875 186.863281 208.554688 C 188.589844 210.140625 188.734375 212.878906 187.148438 214.605469 C 179.367188 223.253906 172.304688 232.621094 165.675781 242.136719 C 164.953125 243.433594 163.65625 244.152344 162.214844 244.152344 C 161.496094 244.152344 160.488281 243.863281 159.910156 243.433594 C 157.75 241.992188 157.171875 239.398438 158.613281 237.378906 Z M 643.605469 241.414062 C 642.164062 239.539062 642.882812 236.800781 644.757812 235.359375 C 646.628906 233.921875 649.371094 234.640625 650.808594 236.515625 C 657.585938 246.316406 663.925781 256.835938 669.546875 267.359375 C 670.699219 269.375 669.835938 272.113281 667.816406 273.265625 C 667.097656 273.554688 666.375 273.699219 665.800781 273.699219 C 664.214844 273.699219 662.773438 272.980469 662.050781 271.394531 C 656.429688 261.160156 650.234375 250.925781 643.605469 241.414062 Z M 537.957031 143.550781 C 539.109375 141.535156 541.5625 140.667969 543.867188 141.820312 C 554.53125 147.300781 564.910156 153.640625 574.710938 160.558594 C 576.585938 162 577.015625 164.449219 575.863281 166.613281 C 574.710938 167.910156 573.558594 168.484375 572.117188 168.484375 C 571.394531 168.484375 570.386719 168.199219 569.808594 167.765625 C 560.152344 161.136719 550.210938 155.082031 539.832031 149.605469 C 537.667969 148.308594 536.949219 145.714844 537.957031 143.550781 Z M 471.082031 119.480469 C 471.660156 117.175781 473.964844 115.734375 476.269531 116.3125 C 487.945312 119.195312 499.476562 122.796875 510.71875 127.121094 C 512.878906 127.839844 514.03125 130.4375 513.3125 132.597656 C 512.734375 134.328125 511.007812 135.480469 509.132812 135.480469 C 508.699219 135.480469 508.125 135.335938 507.546875 135.191406 C 496.59375 131.011719 485.351562 127.554688 474.109375 124.816406 C 471.804688 124.09375 470.507812 121.789062 471.082031 119.480469 Z M 329.40625 121.644531 C 328.828125 119.339844 330.125 117.03125 332.574219 116.457031 C 344.105469 113.574219 356.210938 111.410156 368.03125 109.824219 C 370.335938 109.539062 372.5 111.265625 372.789062 113.574219 C 373.074219 115.878906 371.347656 118.183594 369.039062 118.328125 C 357.507812 119.769531 345.980469 121.933594 334.59375 124.671875 C 334.449219 124.960938 334.015625 124.960938 333.585938 124.960938 C 331.566406 124.960938 329.835938 123.660156 329.40625 121.644531 Z M 399.738281 112.132812 C 399.738281 109.824219 401.613281 107.808594 404.0625 107.808594 L 405.070312 107.808594 C 417.035156 107.808594 429.140625 108.527344 440.960938 109.96875 C 443.265625 110.257812 445.140625 112.277344 444.707031 114.726562 C 444.417969 116.601562 442.691406 118.328125 440.382812 118.328125 C 440.238281 118.328125 440.09375 118.328125 439.949219 118.328125 C 428.421875 116.886719 416.746094 116.3125 404.929688 116.3125 L 403.917969 116.3125 C 401.613281 116.457031 399.738281 114.582031 399.738281 112.132812 Z M 263.539062 148.019531 C 262.386719 146 263.25 143.261719 265.269531 142.109375 C 275.933594 136.632812 286.886719 131.445312 297.984375 127.265625 C 300.148438 126.542969 302.742188 127.554688 303.460938 129.859375 C 304.183594 132.019531 303.171875 134.617188 300.867188 135.335938 C 289.914062 139.515625 279.390625 144.417969 269.015625 149.894531 C 268.4375 150.039062 267.71875 150.179688 267.140625 150.179688 C 265.699219 150.324219 264.402344 149.460938 263.539062 148.019531 Z M 651.097656 575.9375 C 644.324219 585.738281 636.828125 595.394531 628.902344 604.328125 C 627.894531 605.339844 626.742188 605.769531 625.589844 605.769531 C 624.578125 605.769531 623.570312 605.480469 622.707031 604.617188 C 620.976562 603.03125 620.832031 600.292969 622.417969 598.5625 C 630.199219 589.917969 637.40625 580.546875 643.890625 571.035156 C 645.332031 569.160156 647.785156 568.730469 649.945312 569.882812 C 651.820312 571.324219 652.25 573.917969 651.097656 575.9375 Z M 684.390625 511.941406 C 680.070312 523.183594 675.167969 534.28125 669.691406 544.804688 C 668.683594 546.390625 667.386719 547.109375 665.800781 547.109375 C 665.222656 547.109375 664.359375 546.964844 663.78125 546.679688 C 661.765625 545.523438 660.898438 543.074219 662.050781 540.769531 C 667.386719 530.535156 672.285156 519.726562 676.464844 508.773438 C 677.1875 506.609375 679.78125 505.457031 681.941406 506.179688 C 684.105469 506.898438 685.257812 509.78125 684.390625 511.941406 Z M 622.128906 213.886719 C 614.347656 205.238281 606.128906 196.734375 597.484375 189.238281 C 595.753906 187.65625 595.609375 184.917969 597.195312 183.1875 C 598.78125 181.457031 601.519531 181.3125 603.25 182.898438 C 612.328125 190.824219 620.832031 199.328125 628.757812 208.410156 C 630.34375 210.140625 630.199219 212.878906 628.46875 214.460938 C 627.460938 215.039062 626.453125 215.472656 625.445312 215.472656 C 624.003906 215.328125 622.847656 214.894531 622.128906 213.886719 Z M 603.679688 623.640625 C 605.265625 625.371094 605.121094 628.109375 603.390625 629.695312 C 594.3125 637.621094 584.945312 645.261719 575 652.035156 C 573.988281 652.613281 573.269531 653.042969 572.40625 653.042969 C 570.964844 653.042969 569.667969 652.46875 568.945312 651.171875 C 567.503906 649.296875 568.226562 646.558594 570.097656 645.117188 C 579.609375 638.488281 588.980469 631.136719 597.628906 623.5 C 599.5 621.625 602.09375 621.914062 603.679688 623.640625 Z M 703.707031 406.296875 C 703.5625 408.460938 701.6875 410.621094 699.238281 410.621094 C 696.789062 410.621094 694.914062 408.746094 694.914062 406.296875 C 694.914062 394.621094 694.191406 382.804688 692.894531 371.273438 C 692.609375 368.96875 694.335938 366.804688 696.644531 366.519531 C 698.949219 366.230469 701.109375 367.960938 701.398438 370.265625 C 702.984375 382.226562 703.707031 394.191406 703.707031 406.296875 Z M 701.542969 442.039062 C 700.101562 453.859375 697.941406 465.964844 695.058594 477.496094 C 694.625 479.515625 692.894531 480.957031 690.878906 480.957031 C 690.589844 480.957031 690.300781 480.957031 689.871094 480.8125 C 687.5625 480.234375 686.121094 477.929688 686.699219 475.621094 C 689.4375 464.378906 691.597656 452.707031 692.894531 441.175781 C 693.183594 438.871094 695.203125 436.996094 697.652344 437.429688 C 700.101562 437.859375 701.832031 439.589844 701.542969 442.039062 Z M 686.699219 336.828125 C 683.816406 325.585938 680.355469 314.34375 676.320312 303.390625 C 675.601562 301.226562 676.609375 298.632812 678.914062 297.914062 C 681.078125 297.191406 683.671875 298.199219 684.390625 300.507812 C 688.714844 311.75 692.320312 323.28125 695.203125 334.808594 C 695.777344 337.117188 694.480469 339.421875 692.03125 340 C 691.597656 340.140625 691.308594 340.140625 690.878906 340.140625 C 688.859375 340.140625 687.128906 338.84375 686.699219 336.828125 Z M 546.171875 664.863281 C 547.328125 666.878906 546.460938 669.621094 544.445312 670.773438 C 533.777344 676.25 522.824219 681.4375 511.582031 685.617188 C 511.007812 685.761719 510.285156 685.90625 509.851562 685.90625 C 508.125 685.90625 506.539062 684.753906 505.960938 683.023438 C 505.242188 680.859375 506.25 678.265625 508.554688 677.546875 C 519.507812 673.367188 530.03125 668.464844 540.550781 663.132812 C 542.28125 662.125 545.019531 662.84375 546.171875 664.863281 Z M 212.949219 623.929688 C 214.679688 625.515625 214.824219 628.253906 213.238281 629.984375 C 212.515625 631.136719 211.363281 631.570312 210.066406 631.570312 C 209.058594 631.570312 208.050781 631.28125 207.183594 630.417969 C 198.105469 622.488281 189.601562 613.984375 181.671875 604.90625 C 180.089844 603.175781 180.230469 600.4375 181.960938 598.851562 C 183.691406 597.265625 186.429688 597.410156 188.015625 599.140625 C 195.796875 607.933594 204.15625 616.148438 212.949219 623.929688 Z M 166.539062 571.46875 C 167.980469 573.339844 167.550781 576.082031 165.386719 577.519531 C 164.667969 578.097656 163.800781 578.53125 162.792969 578.53125 C 161.351562 578.53125 160.054688 577.953125 159.332031 576.65625 C 152.558594 566.855469 146.21875 556.335938 140.597656 545.8125 C 139.445312 543.796875 140.308594 541.058594 142.328125 539.902344 C 144.34375 538.75 147.082031 539.617188 148.234375 541.632812 C 153.710938 551.867188 159.910156 561.8125 166.539062 571.46875 Z M 133.96875 509.925781 C 134.6875 512.085938 133.679688 514.679688 131.371094 515.402344 C 130.796875 515.546875 130.21875 515.691406 129.789062 515.691406 C 128.058594 515.691406 126.472656 514.539062 125.894531 512.808594 C 121.570312 501.566406 117.96875 490.035156 115.085938 478.503906 C 114.511719 476.199219 115.808594 473.894531 118.257812 473.316406 C 120.5625 472.738281 122.871094 474.039062 123.445312 476.488281 C 126.328125 487.730469 129.789062 498.972656 133.96875 509.925781 Z M 272.042969 669.332031 C 271.609375 670.917969 270.023438 671.636719 268.4375 671.636719 C 267.863281 671.636719 266.996094 671.492188 266.421875 671.203125 C 255.753906 665.726562 245.378906 659.386719 235.578125 652.46875 C 233.703125 651.027344 233.269531 648.578125 234.425781 646.414062 C 235.867188 644.539062 238.316406 644.109375 240.476562 645.261719 C 250.132812 651.890625 260.078125 657.945312 270.457031 663.277344 C 272.472656 664.574219 273.195312 667.167969 272.042969 669.332031 Z M 480.164062 691.382812 C 480.738281 693.6875 479.441406 695.996094 476.992188 696.570312 C 465.460938 699.453125 453.355469 701.617188 441.535156 703.058594 C 441.25 702.914062 441.105469 703.058594 440.960938 703.058594 C 438.796875 703.058594 437.070312 701.472656 436.636719 699.308594 C 436.347656 697.003906 438.078125 694.839844 440.382812 694.554688 C 451.914062 693.113281 463.445312 691.09375 474.828125 688.210938 C 477.28125 687.492188 479.441406 688.933594 480.164062 691.382812 Z M 339.0625 693.398438 C 338.628906 695.417969 336.898438 696.714844 334.882812 696.714844 C 334.59375 696.714844 334.304688 696.714844 333.871094 696.570312 C 322.199219 693.6875 310.667969 690.085938 299.425781 685.90625 C 297.265625 685.183594 296.109375 682.589844 296.832031 680.429688 C 297.550781 678.265625 300.148438 677.113281 302.308594 677.835938 C 313.261719 682.015625 324.503906 685.472656 335.746094 688.066406 C 338.195312 688.789062 339.636719 691.09375 339.0625 693.398438 Z M 409.683594 700.894531 C 409.683594 703.199219 407.808594 705.21875 405.359375 705.21875 L 404.929688 705.21875 C 393.109375 705.21875 381.148438 704.640625 369.472656 703.199219 C 367.167969 702.914062 365.292969 700.894531 365.726562 698.445312 C 366.15625 695.996094 368.03125 694.265625 370.480469 694.699219 C 381.867188 696.140625 393.398438 696.714844 404.929688 696.714844 L 405.359375 696.714844 C 407.808594 696.570312 409.683594 698.445312 409.683594 700.894531 Z M 255.324219 470.578125 C 255.324219 456.164062 259.070312 445.066406 266.421875 437.285156 C 273.769531 429.5 284.292969 425.753906 297.839844 425.753906 C 311.390625 425.753906 322.199219 429.644531 329.261719 437.285156 C 336.609375 445.066406 340.359375 456.019531 340.359375 470.578125 L 340.359375 563.253906 C 340.359375 577.664062 336.609375 588.761719 329.261719 596.546875 C 321.910156 604.328125 311.390625 608.078125 297.839844 608.078125 C 284.292969 608.078125 273.484375 604.183594 266.421875 596.546875 C 259.070312 588.761719 255.324219 577.808594 255.324219 563.253906 Z M 283.285156 565.125 C 283.285156 571.613281 284.582031 576.222656 287.175781 578.820312 C 289.914062 581.558594 293.230469 582.710938 297.839844 582.710938 C 302.453125 582.710938 305.769531 581.414062 308.507812 578.820312 C 311.246094 576.082031 312.398438 571.757812 312.398438 565.125 L 312.398438 468.847656 C 312.398438 462.363281 311.101562 457.75 308.507812 455.15625 C 305.769531 452.417969 302.453125 451.265625 297.839844 451.265625 C 293.230469 451.265625 289.914062 452.5625 287.175781 455.15625 C 284.4375 457.894531 283.285156 462.21875 283.285156 468.847656 Z M 401.757812 507.1875 L 437.933594 507.1875 L 437.933594 532.699219 L 401.757812 532.699219 L 401.757812 606.347656 L 373.796875 606.347656 L 373.796875 428.058594 L 448.023438 428.058594 L 448.023438 453.570312 L 401.757812 453.570312 C 401.757812 453.28125 401.757812 507.1875 401.757812 507.1875 Z M 505.097656 507.1875 L 541.273438 507.1875 L 541.273438 532.699219 L 505.097656 532.699219 L 505.097656 606.347656 L 477.136719 606.347656 L 477.136719 428.058594 L 551.363281 428.058594 L 551.363281 453.570312 L 505.097656 453.570312 Z M 505.097656 507.1875 " fill-opacity="1" fill-rule="nonzero"/><path fill="#000000" d="M 300.003906 259.140625 C 300.003906 251.792969 298.851562 246.890625 296.398438 244.296875 C 293.949219 241.703125 290.777344 240.40625 286.597656 240.40625 C 282.5625 240.40625 279.25 241.558594 276.796875 244.007812 C 274.347656 246.460938 273.195312 250.640625 273.195312 256.546875 L 273.195312 274.132812 L 248.835938 274.132812 L 248.835938 258.132812 C 248.835938 244.875 252.152344 234.640625 258.636719 227.578125 C 265.125 220.515625 274.78125 216.914062 287.320312 216.914062 C 299.859375 216.914062 309.515625 220.515625 316 227.578125 C 322.488281 234.640625 325.800781 244.875 325.800781 258.132812 C 325.800781 267.214844 324.359375 275.285156 321.765625 282.492188 C 319.027344 289.554688 315.570312 296.183594 311.53125 302.09375 C 307.496094 308 303.03125 313.480469 298.417969 318.378906 C 293.660156 323.28125 289.480469 328.035156 285.734375 332.503906 C 281.988281 336.972656 278.960938 341.441406 276.796875 345.761719 C 274.636719 350.085938 273.914062 354.699219 274.636719 359.601562 L 323.496094 359.601562 L 323.496094 383.09375 L 248.835938 383.09375 L 248.835938 362.914062 C 248.835938 354.988281 250.132812 347.925781 252.585938 341.726562 C 255.035156 335.675781 258.207031 330.054688 262.097656 325.007812 C 265.988281 319.964844 270.023438 315.207031 274.347656 310.738281 C 278.671875 306.273438 282.851562 301.515625 286.597656 296.472656 C 290.488281 291.425781 293.660156 285.949219 296.109375 279.898438 C 298.707031 273.988281 300.003906 267.070312 300.003906 259.140625 Z M 339.636719 258.277344 C 339.636719 245.019531 342.953125 234.785156 349.726562 227.722656 C 356.5 220.660156 366.15625 217.058594 378.839844 217.058594 C 391.523438 217.058594 401.179688 220.660156 407.953125 227.722656 C 414.730469 234.785156 418.042969 245.019531 418.042969 258.277344 L 418.042969 343.746094 C 418.042969 357.003906 414.730469 367.238281 407.953125 374.300781 C 401.179688 381.363281 391.523438 384.964844 378.839844 384.964844 C 366.15625 384.964844 356.5 381.363281 349.726562 374.300781 C 342.953125 367.238281 339.636719 357.003906 339.636719 343.746094 Z M 365.4375 345.332031 C 365.4375 351.238281 366.589844 355.421875 369.039062 357.871094 C 371.488281 360.320312 374.660156 361.472656 378.839844 361.472656 C 382.875 361.472656 386.191406 360.320312 388.640625 357.871094 C 391.089844 355.421875 392.246094 351.238281 392.246094 345.332031 L 392.246094 256.691406 C 392.246094 250.78125 391.089844 246.601562 388.640625 244.152344 C 386.191406 241.703125 383.019531 240.550781 378.839844 240.550781 C 374.804688 240.550781 371.488281 241.703125 369.039062 244.152344 C 366.589844 246.601562 365.4375 250.78125 365.4375 256.691406 Z M 433.320312 244.007812 C 433.320312 235.503906 435.484375 229.019531 439.664062 224.550781 C 443.84375 220.082031 450.039062 217.777344 458.253906 217.777344 C 466.328125 217.777344 472.523438 220.082031 476.847656 224.550781 C 481.027344 229.019531 483.1875 235.648438 483.1875 244.007812 L 483.1875 297.914062 C 483.1875 306.417969 481.027344 312.902344 476.847656 317.371094 C 472.667969 321.839844 466.46875 324.144531 458.253906 324.144531 C 450.183594 324.144531 443.988281 321.839844 439.664062 317.371094 C 435.484375 312.902344 433.320312 306.273438 433.320312 297.914062 Z M 449.75 299.066406 C 449.75 305.984375 452.632812 309.441406 458.253906 309.441406 C 460.847656 309.441406 463.011719 308.578125 464.453125 306.992188 C 465.894531 305.40625 466.613281 302.667969 466.613281 299.066406 L 466.613281 242.710938 C 466.613281 239.109375 465.894531 236.515625 464.453125 234.785156 C 463.011719 233.199219 460.847656 232.335938 458.253906 232.335938 C 452.632812 232.335938 449.75 235.792969 449.75 242.710938 Z M 522.96875 218.785156 L 538.246094 218.785156 L 473.53125 383.09375 L 458.253906 383.09375 Z M 514.753906 304.6875 C 514.753906 296.183594 516.914062 289.699219 521.09375 285.230469 C 525.273438 280.761719 531.472656 278.457031 539.6875 278.457031 C 547.757812 278.457031 553.957031 280.761719 558.28125 285.230469 C 562.460938 289.699219 564.621094 296.328125 564.621094 304.6875 L 564.621094 358.589844 C 564.621094 367.09375 562.460938 373.578125 558.28125 378.046875 C 554.101562 382.515625 547.902344 384.820312 539.6875 384.820312 C 531.617188 384.820312 525.417969 382.515625 521.09375 378.046875 C 516.914062 373.578125 514.753906 366.949219 514.753906 358.589844 Z M 531.183594 359.886719 C 531.183594 366.804688 534.066406 370.265625 539.6875 370.265625 C 542.28125 370.265625 544.445312 369.398438 545.886719 367.816406 C 547.328125 366.230469 548.046875 363.492188 548.046875 359.886719 L 548.046875 303.535156 C 548.046875 299.929688 547.328125 297.335938 545.886719 295.605469 C 544.445312 294.019531 542.28125 293.15625 539.6875 293.15625 C 534.066406 293.15625 531.183594 296.617188 531.183594 303.535156 Z M 531.183594 359.886719 " fill-opacity="1" fill-rule="nonzero"/></svg>